REM DIRINDEX 1\2,1\3,1\4,1\5
REM DIRNAME cjc154,folder01,folder02,folder03,folder04
TITLE ""
FILE "CD2Track02.mp3" MP3
  TRACK 01 AUDIO
    TITLE "5:cjc154_1390"
    INDEX 01 00:00:00
  TRACK 02 AUDIO
    TITLE "0:"
    INDEX 01 00:01:38
  TRACK 03 AUDIO
    TITLE "2:cjc154_1391"
    INDEX 01 00:02:40
  TRACK 04 AUDIO
    TITLE "3:cjc154_1392"
    INDEX 01 00:03:39
  TRACK 05 AUDIO
    TITLE "2:cjc154_1393"
    INDEX 01 00:04:42
  TRACK 06 AUDIO
    TITLE "3:cjc154_1394"
    INDEX 01 00:06:28
  TRACK 07 AUDIO
    TITLE "2:cjc154_1395"
    INDEX 01 00:08:21
  TRACK 08 AUDIO
    TITLE "3:cjc154_1396"
    INDEX 01 00:09:51
  TRACK 09 AUDIO
    TITLE "2:cjc154_1397"
    INDEX 01 00:11:15
  TRACK 10 AUDIO
    TITLE "3:cjc154_1398"
    INDEX 01 00:12:28
  TRACK 11 AUDIO
    TITLE "2:cjc154_1399"
    INDEX 01 00:13:51
  TRACK 12 AUDIO
    TITLE "3:cjc154_1400"
    INDEX 01 00:16:10
  TRACK 13 AUDIO
    TITLE "2:cjc154_1401"
    INDEX 01 00:18:54
  TRACK 14 AUDIO
    TITLE "3:cjc154_1402"
    INDEX 01 00:19:60
  TRACK 15 AUDIO
    TITLE "2:cjc154_1403"
    INDEX 01 00:21:00
  TRACK 16 AUDIO
    TITLE "3:cjc154_1404"
    INDEX 01 00:22:27
  TRACK 17 AUDIO
    TITLE "2:cjc154_1405"
    INDEX 01 00:23:59
  TRACK 18 AUDIO
    TITLE "3:cjc154_1406"
    INDEX 01 00:26:05
  TRACK 19 AUDIO
    TITLE "2:cjc154_1407"
    INDEX 01 00:28:31
  TRACK 20 AUDIO
    TITLE "3:cjc154_1408"
    INDEX 01 00:30:26
  TRACK 21 AUDIO
    TITLE "2:cjc154_1409"
    INDEX 01 00:32:29
  TRACK 22 AUDIO
    TITLE "3:cjc154_1410"
    INDEX 01 00:33:60
  TRACK 23 AUDIO
    TITLE "2:cjc154_1411"
    INDEX 01 00:35:23
  TRACK 24 AUDIO
    TITLE "3:cjc154_1412"
    INDEX 01 00:37:10
  TRACK 25 AUDIO
    TITLE "2:cjc154_1413"
    INDEX 01 00:39:02
  TRACK 26 AUDIO
    TITLE "3:cjc154_1414"
    INDEX 01 00:41:47
  TRACK 27 AUDIO
    TITLE "2:cjc154_1415"
    INDEX 01 00:44:24
  TRACK 28 AUDIO
    TITLE "3:cjc154_1416"
    INDEX 01 00:45:41
  TRACK 29 AUDIO
    TITLE "2:cjc154_1417"
    INDEX 01 00:46:58
  TRACK 30 AUDIO
    TITLE "3:cjc154_1418"
    INDEX 01 00:48:53
  TRACK 31 AUDIO
    TITLE "2:cjc154_1419"
    INDEX 01 00:50:54
  TRACK 32 AUDIO
    TITLE "3:cjc154_1420"
    INDEX 01 00:52:37
  TRACK 33 AUDIO
    TITLE "2:cjc154_1421"
    INDEX 01 00:54:30
  TRACK 34 AUDIO
    TITLE "3:cjc154_1422"
    INDEX 01 00:56:10
  TRACK 35 AUDIO
    TITLE "2:cjc154_1423"
    INDEX 01 00:58:01
  TRACK 36 AUDIO
    TITLE "3:cjc154_1424"
    INDEX 01 00:59:61
  TRACK 37 AUDIO
    TITLE "2:cjc154_1425"
    INDEX 01 01:01:58
  TRACK 38 AUDIO
    TITLE "3:cjc154_1426"
    INDEX 01 01:03:33
  TRACK 39 AUDIO
    TITLE "2:cjc154_1427"
    INDEX 01 01:05:15
  TRACK 40 AUDIO
    TITLE "3:cjc154_1428"
    INDEX 01 01:07:19
  TRACK 41 AUDIO
    TITLE "2:cjc154_1429"
    INDEX 01 01:09:28
  TRACK 42 AUDIO
    TITLE "3:cjc154_1430"
    INDEX 01 01:11:29
  TRACK 43 AUDIO
    TITLE "2:cjc154_1431"
    INDEX 01 01:13:44
  TRACK 44 AUDIO
    TITLE "3:cjc154_1432"
    INDEX 01 01:14:74
  TRACK 45 AUDIO
    TITLE "2:cjc154_1433"
    INDEX 01 01:16:42
  TRACK 46 AUDIO
    TITLE "3:cjc154_1434"
    INDEX 01 01:17:71
  TRACK 47 AUDIO
    TITLE "2:cjc154_1435"
    INDEX 01 01:19:32
  TRACK 48 AUDIO
    TITLE "3:cjc154_1436"
    INDEX 01 01:21:16
  TRACK 49 AUDIO
    TITLE "2:cjc154_1437"
    INDEX 01 01:23:15
  TRACK 50 AUDIO
    TITLE "3:cjc154_1438"
    INDEX 01 01:25:19
  TRACK 51 AUDIO
    TITLE "2:cjc154_1439"
    INDEX 01 01:27:42
  TRACK 52 AUDIO
    TITLE "3:cjc154_1440"
    INDEX 01 01:29:07
  TRACK 53 AUDIO
    TITLE "2:cjc154_1441"
    INDEX 01 01:30:50
  TRACK 54 AUDIO
    TITLE "3:cjc154_1442"
    INDEX 01 01:32:12
  TRACK 55 AUDIO
    TITLE "2:cjc154_1443"
    INDEX 01 01:33:48
  TRACK 56 AUDIO
    TITLE "3:cjc154_1444"
    INDEX 01 01:36:15
  TRACK 57 AUDIO
    TITLE "2:cjc154_1445"
    INDEX 01 01:38:67
  TRACK 58 AUDIO
    TITLE "3:cjc154_1446"
    INDEX 01 01:40:15
  TRACK 59 AUDIO
    TITLE "2:cjc154_1447"
    INDEX 01 01:41:42
  TRACK 60 AUDIO
    TITLE "3:cjc154_1448"
    INDEX 01 01:43:37
  TRACK 61 AUDIO
    TITLE "2:cjc154_1449"
    INDEX 01 01:45:36
  TRACK 62 AUDIO
    TITLE "3:cjc154_1450"
    INDEX 01 01:46:61
  TRACK 63 AUDIO
    TITLE "2:cjc154_1451"
    INDEX 01 01:48:20
  TRACK 64 AUDIO
    TITLE "3:cjc154_1452"
    INDEX 01 01:50:06
  TRACK 65 AUDIO
    TITLE "2:cjc154_1453"
    INDEX 01 01:52:00
  TRACK 66 AUDIO
    TITLE "3:cjc154_1454"
    INDEX 01 01:53:57
  TRACK 67 AUDIO
    TITLE "2:cjc154_1455"
    INDEX 01 01:55:38
  TRACK 68 AUDIO
    TITLE "3:cjc154_1456"
    INDEX 01 01:57:29
  TRACK 69 AUDIO
    TITLE "2:cjc154_1457"
    INDEX 01 01:59:28
  TRACK 70 AUDIO
    TITLE "3:cjc154_1458"
    INDEX 01 02:00:61
  TRACK 71 AUDIO
    TITLE "2:cjc154_1459"
    INDEX 01 02:02:22
  TRACK 72 AUDIO
    TITLE "3:cjc154_1460"
    INDEX 01 02:04:53
  TRACK 73 AUDIO
    TITLE "2:cjc154_1461"
    INDEX 01 02:07:12
  TRACK 74 AUDIO
    TITLE "3:cjc154_1462"
    INDEX 01 02:08:48
  TRACK 75 AUDIO
    TITLE "2:cjc154_1463"
    INDEX 01 02:10:24
  TRACK 76 AUDIO
    TITLE "3:cjc154_1464"
    INDEX 01 02:12:17
  TRACK 77 AUDIO
    TITLE "2:cjc154_1465"
    INDEX 01 02:14:16
  TRACK 78 AUDIO
    TITLE "3:cjc154_1466"
    INDEX 01 02:15:66
  TRACK 79 AUDIO
    TITLE "2:cjc154_1467"
    INDEX 01 02:17:51
  TRACK 80 AUDIO
    TITLE "3:cjc154_1468"
    INDEX 01 02:19:39
  TRACK 81 AUDIO
    TITLE "2:cjc154_1469"
    INDEX 01 02:21:35
  TRACK 82 AUDIO
    TITLE "3:cjc154_1470"
    INDEX 01 02:22:58
  TRACK 83 AUDIO
    TITLE "2:cjc154_1471"
    INDEX 01 02:24:10
  TRACK 84 AUDIO
    TITLE "3:cjc154_1472"
    INDEX 01 02:25:74
  TRACK 85 AUDIO
    TITLE "2:cjc154_1473"
    INDEX 01 02:27:71
  TRACK 86 AUDIO
    TITLE "3:cjc154_1474"
    INDEX 01 02:30:03
  TRACK 87 AUDIO
    TITLE "2:cjc154_1475"
    INDEX 01 02:32:18
  TRACK 88 AUDIO
    TITLE "3:cjc154_1476"
    INDEX 01 02:34:69
  TRACK 89 AUDIO
    TITLE "2:cjc154_1477"
    INDEX 01 02:37:52
  TRACK 90 AUDIO
    TITLE "3:cjc154_1478"
    INDEX 01 02:38:71
  TRACK 91 AUDIO
    TITLE "2:cjc154_1479"
    INDEX 01 02:40:35
  TRACK 92 AUDIO
    TITLE "3:cjc154_1480"
    INDEX 01 02:42:30
  TRACK 93 AUDIO
    TITLE "2:cjc154_1481"
    INDEX 01 02:44:35
  TRACK 94 AUDIO
    TITLE "3:cjc154_1482"
    INDEX 01 02:45:63
  TRACK 95 AUDIO
    TITLE "2:cjc154_1483"
    INDEX 01 02:47:29
  TRACK 96 AUDIO
    TITLE "3:cjc154_1484"
    INDEX 01 02:48:58
  TRACK 97 AUDIO
    TITLE "2:cjc154_1485"
    INDEX 01 02:50:18
  TRACK 98 AUDIO
    TITLE "3:cjc154_1486"
    INDEX 01 02:51:68
  TRACK 99 AUDIO
    TITLE "2:cjc154_1487"
    INDEX 01 02:53:53
  TRACK 100 AUDIO
    TITLE "3:cjc154_1488"
    INDEX 01 02:55:66
  TRACK 101 AUDIO
    TITLE "2:cjc154_1489"
    INDEX 01 02:58:13
  TRACK 102 AUDIO
    TITLE "3:cjc154_1490"
    INDEX 01 03:01:06
  TRACK 103 AUDIO
    TITLE "2:cjc154_1491"
    INDEX 01 03:04:00
  TRACK 104 AUDIO
    TITLE "3:cjc154_1492"
    INDEX 01 03:05:45
  TRACK 105 AUDIO
    TITLE "2:cjc154_1493"
    INDEX 01 03:07:26
  TRACK 106 AUDIO
    TITLE "3:cjc154_1494"
    INDEX 01 03:09:23
  TRACK 107 AUDIO
    TITLE "2:cjc154_1495"
    INDEX 01 03:11:35
  TRACK 108 AUDIO
    TITLE "3:cjc154_1496"
    INDEX 01 03:12:72
  TRACK 109 AUDIO
    TITLE "2:cjc154_1497"
    INDEX 01 03:14:43
  TRACK 110 AUDIO
    TITLE "3:cjc154_1498"
    INDEX 01 03:16:48
  TRACK 111 AUDIO
    TITLE "2:cjc154_1499"
    INDEX 01 03:18:61
  TRACK 112 AUDIO
    TITLE "3:cjc154_1500"
    INDEX 01 03:20:13
  TRACK 113 AUDIO
    TITLE "2:cjc154_1501"
    INDEX 01 03:21:42
  TRACK 114 AUDIO
    TITLE "3:cjc154_1502"
    INDEX 01 03:23:21
  TRACK 115 AUDIO
    TITLE "2:cjc154_1503"
    INDEX 01 03:25:06
  TRACK 116 AUDIO
    TITLE "3:cjc154_1504"
    INDEX 01 03:27:30
  TRACK 117 AUDIO
    TITLE "2:cjc154_1505"
    INDEX 01 03:29:69
  TRACK 118 AUDIO
    TITLE "3:cjc154_1506"
    INDEX 01 03:31:36
  TRACK 119 AUDIO
    TITLE "2:cjc154_1507"
    INDEX 01 03:33:11
  TRACK 120 AUDIO
    TITLE "3:cjc154_1508"
    INDEX 01 03:34:44
  TRACK 121 AUDIO
    TITLE "2:cjc154_1509"
    INDEX 01 03:36:10
  TRACK 122 AUDIO
    TITLE "3:cjc154_1510"
    INDEX 01 03:37:45
  TRACK 123 AUDIO
    TITLE "2:cjc154_1511"
    INDEX 01 03:39:04
  TRACK 124 AUDIO
    TITLE "3:cjc154_1512"
    INDEX 01 03:40:12
  TRACK 125 AUDIO
    TITLE "2:cjc154_1513"
    INDEX 01 03:41:31
  TRACK 126 AUDIO
    TITLE "3:cjc154_1514"
    INDEX 01 03:43:26
  TRACK 127 AUDIO
    TITLE "2:cjc154_1515"
    INDEX 01 03:45:32
  TRACK 128 AUDIO
    TITLE "3:cjc154_1516"
    INDEX 01 03:47:31
  TRACK 129 AUDIO
    TITLE "2:cjc154_1517"
    INDEX 01 03:49:40
  TRACK 130 AUDIO
    TITLE "3:cjc154_1518"
    INDEX 01 03:51:15
  TRACK 131 AUDIO
    TITLE "2:cjc154_1519"
    INDEX 01 03:53:04
  TRACK 132 AUDIO
    TITLE "3:cjc154_1520"
    INDEX 01 03:55:39
  TRACK 133 AUDIO
    TITLE "2:cjc154_1521"
    INDEX 01 03:57:73
  TRACK 134 AUDIO
    TITLE "3:cjc154_1522"
    INDEX 01 04:00:44
  TRACK 135 AUDIO
    TITLE "2:cjc154_1523"
    INDEX 01 04:03:15
  TRACK 136 AUDIO
    TITLE "3:cjc154_1524"
    INDEX 01 04:04:43
  TRACK 137 AUDIO
    TITLE "2:cjc154_1525"
    INDEX 01 04:06:01
  TRACK 138 AUDIO
    TITLE "3:cjc154_1526"
    INDEX 01 04:08:31
  TRACK 139 AUDIO
    TITLE "2:cjc154_1527"
    INDEX 01 04:10:71
  TRACK 140 AUDIO
    TITLE "3:cjc154_1528"
    INDEX 01 04:12:33
  TRACK 141 AUDIO
    TITLE "2:cjc154_1529"
    INDEX 01 04:13:72
  TRACK 142 AUDIO
    TITLE "3:cjc154_1530"
    INDEX 01 04:15:39
  TRACK 143 AUDIO
    TITLE "2:cjc154_1531"
    INDEX 01 04:17:17
  TRACK 144 AUDIO
    TITLE "3:cjc154_1532"
    INDEX 01 04:18:55
  TRACK 145 AUDIO
    TITLE "2:cjc154_1533"
    INDEX 01 04:20:33
  TRACK 146 AUDIO
    TITLE "3:cjc154_1534"
    INDEX 01 04:21:56
  TRACK 147 AUDIO
    TITLE "2:cjc154_1535"
    INDEX 01 04:23:07
  TRACK 148 AUDIO
    TITLE "3:cjc154_1536"
    INDEX 01 04:25:44
  TRACK 149 AUDIO
    TITLE "2:cjc154_1537"
    INDEX 01 04:28:12
  TRACK 150 AUDIO
    TITLE "3:cjc154_1538"
    INDEX 01 04:30:25
  TRACK 151 AUDIO
    TITLE "2:cjc154_1539"
    INDEX 01 04:32:46
  TRACK 152 AUDIO
    TITLE "3:cjc154_1540"
    INDEX 01 04:34:39
  TRACK 153 AUDIO
    TITLE "2:cjc154_1541"
    INDEX 01 04:36:36
  TRACK 154 AUDIO
    TITLE "3:cjc154_1542"
    INDEX 01 04:38:01
  TRACK 155 AUDIO
    TITLE "2:cjc154_1543"
    INDEX 01 04:39:53
  TRACK 156 AUDIO
    TITLE "3:cjc154_1544"
    INDEX 01 04:41:70
  TRACK 157 AUDIO
    TITLE "2:cjc154_1545"
    INDEX 01 04:44:19
  TRACK 158 AUDIO
    TITLE "3:cjc154_1546"
    INDEX 01 04:45:62
  TRACK 159 AUDIO
    TITLE "2:cjc154_1547"
    INDEX 01 04:47:33
  TRACK 160 AUDIO
    TITLE "3:cjc154_1548"
    INDEX 01 04:49:01
  TRACK 161 AUDIO
    TITLE "2:cjc154_1549"
    INDEX 01 04:50:47
  TRACK 162 AUDIO
    TITLE "3:cjc154_1550"
    INDEX 01 04:53:34
  TRACK 163 AUDIO
    TITLE "2:cjc154_1551"
    INDEX 01 04:56:34
  TRACK 164 AUDIO
    TITLE "3:cjc154_1552"
    INDEX 01 04:58:66
  TRACK 165 AUDIO
    TITLE "2:cjc154_1553"
    INDEX 01 05:01:35
  TRACK 166 AUDIO
    TITLE "3:cjc154_1554"
    INDEX 01 05:02:54
  TRACK 167 AUDIO
    TITLE "2:cjc154_1555"
    INDEX 01 05:04:06
  TRACK 168 AUDIO
    TITLE "3:cjc154_1556"
    INDEX 01 05:06:09
  TRACK 169 AUDIO
    TITLE "2:cjc154_1557"
    INDEX 01 05:08:22
  TRACK 170 AUDIO
    TITLE "3:cjc154_1558"
    INDEX 01 05:10:15
  TRACK 171 AUDIO
    TITLE "2:cjc154_1559"
    INDEX 01 05:12:24
  TRACK 172 AUDIO
    TITLE "3:cjc154_1560"
    INDEX 01 05:14:26
  TRACK 173 AUDIO
    TITLE "2:cjc154_1561"
    INDEX 01 05:16:37
  TRACK 174 AUDIO
    TITLE "3:cjc154_1562"
    INDEX 01 05:18:54
  TRACK 175 AUDIO
    TITLE "2:cjc154_1563"
    INDEX 01 05:20:72
  TRACK 176 AUDIO
    TITLE "3:cjc154_1564"
    INDEX 01 05:23:72
  TRACK 177 AUDIO
    TITLE "2:cjc154_1565"
    INDEX 01 05:27:07
  TRACK 178 AUDIO
    TITLE "3:cjc154_1566"
    INDEX 01 05:28:50
  TRACK 179 AUDIO
    TITLE "2:cjc154_1567"
    INDEX 01 05:30:27
  TRACK 180 AUDIO
    TITLE "3:cjc154_1568"
    INDEX 01 05:32:07
  TRACK 181 AUDIO
    TITLE "2:cjc154_1569"
    INDEX 01 05:33:67
  TRACK 182 AUDIO
    TITLE "3:cjc154_1570"
    INDEX 01 05:36:02
  TRACK 183 AUDIO
    TITLE "2:cjc154_1571"
    INDEX 01 05:38:17
  TRACK 184 AUDIO
    TITLE "3:cjc154_1572"
    INDEX 01 05:40:30
  TRACK 185 AUDIO
    TITLE "2:cjc154_1573"
    INDEX 01 05:42:40
  TRACK 186 AUDIO
    TITLE "3:cjc154_1574"
    INDEX 01 05:45:23
  TRACK 187 AUDIO
    TITLE "2:cjc154_1575"
    INDEX 01 05:48:13
  TRACK 188 AUDIO
    TITLE "3:cjc154_1576"
    INDEX 01 05:49:48
  TRACK 189 AUDIO
    TITLE "2:cjc154_1577"
    INDEX 01 05:51:18
  TRACK 190 AUDIO
    TITLE "3:cjc154_1578"
    INDEX 01 05:52:64
  TRACK 191 AUDIO
    TITLE "2:cjc154_1579"
    INDEX 01 05:54:59
  TRACK 192 AUDIO
    TITLE "3:cjc154_1580"
    INDEX 01 05:56:07
  TRACK 193 AUDIO
    TITLE "2:cjc154_1581"
    INDEX 01 05:57:38
  TRACK 194 AUDIO
    TITLE "3:cjc154_1582"
    INDEX 01 06:00:21
  TRACK 195 AUDIO
    TITLE "2:cjc154_1583"
    INDEX 01 06:03:09
  TRACK 196 AUDIO
    TITLE "3:cjc154_1584"
    INDEX 01 06:06:00
  TRACK 197 AUDIO
    TITLE "2:cjc154_1585"
    INDEX 01 06:08:69
  TRACK 198 AUDIO
    TITLE "3:cjc154_1586"
    INDEX 01 06:10:41
  TRACK 199 AUDIO
    TITLE "2:cjc154_1587"
    INDEX 01 06:12:22
  TRACK 200 AUDIO
    TITLE "3:cjc154_1588"
    INDEX 01 06:13:41
  TRACK 201 AUDIO
    TITLE "2:cjc154_1589"
    INDEX 01 06:14:74
  TRACK 202 AUDIO
    TITLE "3:cjc154_1590"
    INDEX 01 06:16:20
  TRACK 203 AUDIO
    TITLE "2:cjc154_1591"
    INDEX 01 06:17:43
  TRACK 204 AUDIO
    TITLE "3:cjc154_1592"
    INDEX 01 06:19:12
  TRACK 205 AUDIO
    TITLE "2:cjc154_1593"
    INDEX 01 06:20:62
  TRACK 206 AUDIO
    TITLE "3:cjc154_1594"
    INDEX 01 06:23:26
  TRACK 207 AUDIO
    TITLE "2:cjc154_1595"
    INDEX 01 06:25:71
  TRACK 208 AUDIO
    TITLE "3:cjc154_1596"
    INDEX 01 06:27:49
  TRACK 209 AUDIO
    TITLE "2:cjc154_1597"
    INDEX 01 06:29:32
  TRACK 210 AUDIO
    TITLE "3:cjc154_1598"
    INDEX 01 06:30:65
  TRACK 211 AUDIO
    TITLE "2:cjc154_1599"
    INDEX 01 06:32:34
  TRACK 212 AUDIO
    TITLE "3:cjc154_1600"
    INDEX 01 06:33:61
  TRACK 213 AUDIO
    TITLE "2:cjc154_1601"
    INDEX 01 06:35:23
  TRACK 214 AUDIO
    TITLE "3:cjc154_1602"
    INDEX 01 06:37:10
  TRACK 215 AUDIO
    TITLE "2:cjc154_1603"
    INDEX 01 06:39:05
  TRACK 216 AUDIO
    TITLE "3:cjc154_1604"
    INDEX 01 06:40:57
  TRACK 217 AUDIO
    TITLE "0:"
    INDEX 01 06:42:58
